<mxfile host="app.diagrams.net" modified="2023-06-16T09:38:21.296Z" agent="Mozilla/5.0 (Windows NT 10.0; Win64; x64) AppleWebKit/537.36 (KHTML, like Gecko) Chrome/114.0.0.0 Safari/537.36" etag="jNHmXW-WPMcYRXYohH5T" version="21.4.0" type="device">
  <diagram name="Page-1" id="13e1069c-82ec-6db2-03f1-153e76fe0fe0">
    <mxGraphModel dx="707" dy="377" grid="1" gridSize="10" guides="1" tooltips="1" connect="1" arrows="1" fold="1" page="1" pageScale="1" pageWidth="1169" pageHeight="1654" background="none" math="0" shadow="0">
      <root>
        <mxCell id="0" />
        <mxCell id="1" parent="0" />
        <mxCell id="7baba1c4bc27f4b0-2" value="KGRetrieval&lt;br&gt;Agent" style="shape=umlLifeline;perimeter=lifelinePerimeter;whiteSpace=wrap;html=1;container=1;collapsible=0;recursiveResize=0;outlineConnect=0;rounded=1;shadow=0;comic=0;labelBackgroundColor=none;strokeWidth=1;fontFamily=Helvetica;fontSize=12;align=center;fillColor=#fff2cc;strokeColor=#d6b656;size=40;" parent="1" vertex="1">
          <mxGeometry x="653" y="79" width="110" height="1391" as="geometry" />
        </mxCell>
        <mxCell id="yroGHbSk9mLoKnZrlHjl-36" value="&lt;font style=&quot;font-size: 11px&quot;&gt;return id of highest travelled &lt;br&gt;ways from &lt;font color=&quot;#cc6600&quot;&gt;ways&lt;/font&gt;&lt;/font&gt;" style="html=1;verticalAlign=bottom;endArrow=none;labelBackgroundColor=default;fontFamily=Helvetica;fontSize=11;edgeStyle=elbowEdgeStyle;elbow=vertical;dashed=1;startArrow=block;startFill=1;endFill=0;rounded=0;endSize=6;" parent="7baba1c4bc27f4b0-2" edge="1">
          <mxGeometry x="-0.0013" relative="1" as="geometry">
            <mxPoint x="60" y="1034" as="sourcePoint" />
            <mxPoint x="229.5" y="1034" as="targetPoint" />
            <Array as="points">
              <mxPoint x="60" y="1034" />
            </Array>
            <mxPoint as="offset" />
          </mxGeometry>
        </mxCell>
        <mxCell id="bnFm4gvqlaWau3aMOQDy-92" value="" style="html=1;verticalAlign=bottom;endArrow=block;rounded=0;endFill=1;endSize=6;fontFamily=Helvetica;labelBackgroundColor=default;" parent="7baba1c4bc27f4b0-2" edge="1">
          <mxGeometry x="0.0032" relative="1" as="geometry">
            <mxPoint x="-223" y="1155" as="sourcePoint" />
            <mxPoint as="offset" />
            <mxPoint x="225" y="1155" as="targetPoint" />
          </mxGeometry>
        </mxCell>
        <mxCell id="bnFm4gvqlaWau3aMOQDy-93" value="&lt;font color=&quot;#cc6600&quot;&gt;Isochrone Table&lt;/font&gt; in SQL view" style="edgeLabel;html=1;align=center;verticalAlign=bottom;resizable=0;points=[];fontColor=#0000FF;labelBackgroundColor=default;" parent="bnFm4gvqlaWau3aMOQDy-92" vertex="1" connectable="0">
          <mxGeometry relative="1" as="geometry">
            <mxPoint as="offset" />
          </mxGeometry>
        </mxCell>
        <mxCell id="yroGHbSk9mLoKnZrlHjl-45" value="&lt;font style=&quot;font-size: 11px&quot;&gt;return updated isochrone polygon&lt;/font&gt;" style="html=1;verticalAlign=bottom;endArrow=none;labelBackgroundColor=default;fontFamily=Helvetica;fontSize=11;edgeStyle=elbowEdgeStyle;elbow=vertical;dashed=1;startArrow=block;startFill=1;endFill=0;rounded=0;endSize=6;" parent="7baba1c4bc27f4b0-2" edge="1">
          <mxGeometry relative="1" as="geometry">
            <mxPoint x="-223" y="1185" as="sourcePoint" />
            <mxPoint x="229.5" y="1185" as="targetPoint" />
            <Array as="points">
              <mxPoint x="60" y="1185" />
            </Array>
          </mxGeometry>
        </mxCell>
        <mxCell id="yroGHbSk9mLoKnZrlHjl-43" value="" style="html=1;verticalAlign=bottom;endArrow=block;rounded=0;endFill=1;endSize=6;fontFamily=Helvetica;exitX=1.143;exitY=0.544;exitDx=0;exitDy=0;exitPerimeter=0;labelBackgroundColor=default;" parent="7baba1c4bc27f4b0-2" edge="1">
          <mxGeometry x="0.0032" relative="1" as="geometry">
            <mxPoint x="60" y="1125" as="sourcePoint" />
            <mxPoint as="offset" />
            <mxPoint x="225" y="1125" as="targetPoint" />
          </mxGeometry>
        </mxCell>
        <mxCell id="yroGHbSk9mLoKnZrlHjl-44" value="Create &lt;font color=&quot;#cc6600&quot;&gt;Isochrone Table&lt;/font&gt; with&amp;nbsp;&lt;br style=&quot;border-color: var(--border-color);&quot;&gt;ST_OptimalAlphaShape" style="edgeLabel;html=1;align=center;verticalAlign=bottom;resizable=0;points=[];fontColor=#0000FF;labelBackgroundColor=default;" parent="yroGHbSk9mLoKnZrlHjl-43" vertex="1" connectable="0">
          <mxGeometry relative="1" as="geometry">
            <mxPoint as="offset" />
          </mxGeometry>
        </mxCell>
        <mxCell id="UIIr30xV4heyDFPr3auX-8" value="" style="html=1;points=[];perimeter=orthogonalPerimeter;rounded=0;shadow=0;comic=0;labelBackgroundColor=default;strokeWidth=1;fontFamily=Helvetica;fontSize=12;align=center;fillColor=#fff2cc;strokeColor=#d6b656;" parent="7baba1c4bc27f4b0-2" vertex="1">
          <mxGeometry x="50" y="551" width="10" height="120" as="geometry" />
        </mxCell>
        <mxCell id="UIIr30xV4heyDFPr3auX-10" value="&lt;font style=&quot;font-size: 11px&quot;&gt;return&amp;nbsp;&lt;font style=&quot;border-color: var(--border-color);&quot; color=&quot;#cc6600&quot;&gt;ways_vertices_pgr&lt;/font&gt;&lt;font style=&quot;border-color: var(--border-color);&quot; color=&quot;#000000&quot;&gt;&amp;nbsp;IRI&lt;/font&gt;&amp;nbsp;&lt;/font&gt;" style="html=1;verticalAlign=bottom;endArrow=none;labelBackgroundColor=default;fontFamily=Helvetica;fontSize=11;edgeStyle=elbowEdgeStyle;elbow=vertical;dashed=1;startArrow=block;startFill=1;endFill=0;rounded=0;endSize=6;" parent="7baba1c4bc27f4b0-2" target="7baba1c4bc27f4b0-4" edge="1">
          <mxGeometry x="0.0009" relative="1" as="geometry">
            <mxPoint x="-349.7222222222222" y="471" as="sourcePoint" />
            <mxPoint x="235" y="471" as="targetPoint" />
            <Array as="points">
              <mxPoint x="70" y="471" />
            </Array>
            <mxPoint as="offset" />
          </mxGeometry>
        </mxCell>
        <mxCell id="7baba1c4bc27f4b0-3" value="PostGIS" style="shape=umlLifeline;perimeter=lifelinePerimeter;whiteSpace=wrap;html=1;container=1;collapsible=0;recursiveResize=0;outlineConnect=0;rounded=1;shadow=0;comic=0;labelBackgroundColor=none;strokeWidth=1;fontFamily=Helvetica;fontSize=12;align=center;fillColor=#f8cecc;strokeColor=#b85450;" parent="1" vertex="1">
          <mxGeometry x="823" y="80" width="120" height="1390" as="geometry" />
        </mxCell>
        <mxCell id="t_Ti84ju1iwW1GZTYooi-32" value="" style="html=1;points=[];perimeter=orthogonalPerimeter;fillColor=#f8cecc;fontFamily=Helvetica;strokeColor=#b85450;labelBackgroundColor=default;" parent="7baba1c4bc27f4b0-3" vertex="1">
          <mxGeometry x="55" y="230" width="10" height="110" as="geometry" />
        </mxCell>
        <mxCell id="jPtnPKBCRb5HNoMUkQSy-12" value="" style="html=1;points=[];perimeter=orthogonalPerimeter;fillColor=#f8cecc;fontFamily=Helvetica;strokeColor=#b85450;labelBackgroundColor=default;" parent="7baba1c4bc27f4b0-3" vertex="1">
          <mxGeometry x="55" y="110" width="10" height="36" as="geometry" />
        </mxCell>
        <mxCell id="jPtnPKBCRb5HNoMUkQSy-14" value="&lt;span style=&quot;color: rgb(0, 0, 0); font-family: Helvetica; font-size: 9px; font-style: normal; font-variant-ligatures: normal; font-variant-caps: normal; font-weight: 400; letter-spacing: normal; orphans: 2; text-align: center; text-indent: 0px; text-transform: none; widows: 2; word-spacing: 0px; -webkit-text-stroke-width: 0px; text-decoration-thickness: initial; text-decoration-style: initial; text-decoration-color: initial; float: none; display: inline !important;&quot;&gt;Routable Network (Nodes, Vertices)&lt;/span&gt;" style="text;whiteSpace=wrap;html=1;fontSize=9;labelBackgroundColor=default;" parent="7baba1c4bc27f4b0-3" vertex="1">
          <mxGeometry x="70" y="100" width="40" height="40" as="geometry" />
        </mxCell>
        <mxCell id="jPtnPKBCRb5HNoMUkQSy-15" style="edgeStyle=orthogonalEdgeStyle;rounded=0;orthogonalLoop=1;jettySize=auto;html=1;exitX=0.5;exitY=1;exitDx=0;exitDy=0;labelBackgroundColor=default;" parent="7baba1c4bc27f4b0-3" source="jPtnPKBCRb5HNoMUkQSy-14" target="jPtnPKBCRb5HNoMUkQSy-14" edge="1">
          <mxGeometry relative="1" as="geometry" />
        </mxCell>
        <mxCell id="yroGHbSk9mLoKnZrlHjl-19" value="" style="html=1;verticalAlign=bottom;endArrow=block;rounded=0;endFill=1;endSize=6;fontFamily=Helvetica;exitX=1.143;exitY=0.544;exitDx=0;exitDy=0;exitPerimeter=0;labelBackgroundColor=default;" parent="7baba1c4bc27f4b0-3" edge="1">
          <mxGeometry x="0.0032" relative="1" as="geometry">
            <mxPoint x="-110" y="844" as="sourcePoint" />
            <mxPoint as="offset" />
            <mxPoint x="55" y="844" as="targetPoint" />
          </mxGeometry>
        </mxCell>
        <mxCell id="yroGHbSk9mLoKnZrlHjl-20" value="Find nearest node in &lt;br&gt;&lt;font color=&quot;#cc6600&quot;&gt;ways_vertices&lt;/font&gt;" style="edgeLabel;html=1;align=center;verticalAlign=bottom;resizable=0;points=[];fontColor=#0000FF;labelBackgroundColor=default;" parent="yroGHbSk9mLoKnZrlHjl-19" vertex="1" connectable="0">
          <mxGeometry relative="1" as="geometry">
            <mxPoint as="offset" />
          </mxGeometry>
        </mxCell>
        <mxCell id="yroGHbSk9mLoKnZrlHjl-24" value="" style="html=1;points=[];perimeter=orthogonalPerimeter;fillColor=#f8cecc;fontFamily=Helvetica;strokeColor=#b85450;labelBackgroundColor=default;" parent="7baba1c4bc27f4b0-3" vertex="1">
          <mxGeometry x="55" y="820" width="10" height="134" as="geometry" />
        </mxCell>
        <mxCell id="yroGHbSk9mLoKnZrlHjl-26" value="" style="html=1;verticalAlign=bottom;endArrow=block;rounded=0;endFill=1;endSize=6;fontFamily=Helvetica;exitX=1.143;exitY=0.544;exitDx=0;exitDy=0;exitPerimeter=0;labelBackgroundColor=default;" parent="7baba1c4bc27f4b0-3" edge="1">
          <mxGeometry x="0.0032" relative="1" as="geometry">
            <mxPoint x="-110" y="885" as="sourcePoint" />
            <mxPoint as="offset" />
            <mxPoint x="55" y="885" as="targetPoint" />
          </mxGeometry>
        </mxCell>
        <mxCell id="yroGHbSk9mLoKnZrlHjl-27" value="Create &lt;font color=&quot;#cc6600&quot;&gt;Isochrone Table&lt;/font&gt; with&amp;nbsp;&lt;br style=&quot;border-color: var(--border-color);&quot;&gt;ST_OptimalAlphaShape" style="edgeLabel;html=1;align=center;verticalAlign=bottom;resizable=0;points=[];fontColor=#0000FF;labelBackgroundColor=default;" parent="yroGHbSk9mLoKnZrlHjl-26" vertex="1" connectable="0">
          <mxGeometry relative="1" as="geometry">
            <mxPoint as="offset" />
          </mxGeometry>
        </mxCell>
        <mxCell id="p0byIvA4VLlAtnDWS7G8-3" value="" style="html=1;verticalAlign=bottom;endArrow=block;rounded=0;endFill=1;endSize=6;fontFamily=Helvetica;exitX=1.143;exitY=0.544;exitDx=0;exitDy=0;exitPerimeter=0;labelBackgroundColor=default;" parent="7baba1c4bc27f4b0-3" edge="1">
          <mxGeometry x="0.0032" relative="1" as="geometry">
            <mxPoint x="-110" y="1356" as="sourcePoint" />
            <mxPoint as="offset" />
            <mxPoint x="55" y="1356" as="targetPoint" />
          </mxGeometry>
        </mxCell>
        <mxCell id="p0byIvA4VLlAtnDWS7G8-4" value="Find nearest node in&lt;br style=&quot;border-color: var(--border-color);&quot;&gt;&lt;font style=&quot;border-color: var(--border-color);&quot; color=&quot;#cc6600&quot;&gt;ways_vertices&lt;/font&gt;" style="edgeLabel;html=1;align=center;verticalAlign=bottom;resizable=0;points=[];fontColor=#0000FF;labelBackgroundColor=default;" parent="p0byIvA4VLlAtnDWS7G8-3" vertex="1" connectable="0">
          <mxGeometry relative="1" as="geometry">
            <mxPoint as="offset" />
          </mxGeometry>
        </mxCell>
        <mxCell id="p0byIvA4VLlAtnDWS7G8-5" value="" style="html=1;verticalAlign=bottom;endArrow=block;rounded=0;endFill=1;endSize=6;fontFamily=Helvetica;exitX=1.143;exitY=0.544;exitDx=0;exitDy=0;exitPerimeter=0;labelBackgroundColor=default;" parent="7baba1c4bc27f4b0-3" target="p0byIvA4VLlAtnDWS7G8-9" edge="1">
          <mxGeometry x="0.0032" relative="1" as="geometry">
            <mxPoint x="-110" y="1390" as="sourcePoint" />
            <mxPoint as="offset" />
            <mxPoint x="40" y="1390" as="targetPoint" />
          </mxGeometry>
        </mxCell>
        <mxCell id="p0byIvA4VLlAtnDWS7G8-6" value="Create table &lt;font color=&quot;#cc6600&quot;&gt;tsp &lt;/font&gt;with&lt;br&gt;pgr_dijkstraCostMatrix" style="edgeLabel;html=1;align=center;verticalAlign=bottom;resizable=0;points=[];fontColor=#0000FF;labelBackgroundColor=default;" parent="p0byIvA4VLlAtnDWS7G8-5" vertex="1" connectable="0">
          <mxGeometry relative="1" as="geometry">
            <mxPoint as="offset" />
          </mxGeometry>
        </mxCell>
        <mxCell id="p0byIvA4VLlAtnDWS7G8-9" value="" style="html=1;points=[];perimeter=orthogonalPerimeter;fillColor=#f8cecc;fontFamily=Helvetica;strokeColor=#b85450;labelBackgroundColor=default;" parent="7baba1c4bc27f4b0-3" vertex="1">
          <mxGeometry x="55" y="1243" width="10" height="227" as="geometry" />
        </mxCell>
        <mxCell id="p0byIvA4VLlAtnDWS7G8-12" value="" style="html=1;verticalAlign=bottom;endArrow=block;rounded=0;endFill=1;endSize=6;fontFamily=Helvetica;labelBackgroundColor=default;" parent="7baba1c4bc27f4b0-3" edge="1">
          <mxGeometry x="0.0032" relative="1" as="geometry">
            <mxPoint x="-110" y="1319" as="sourcePoint" />
            <mxPoint as="offset" />
            <mxPoint x="55" y="1319.0000000000002" as="targetPoint" />
          </mxGeometry>
        </mxCell>
        <mxCell id="p0byIvA4VLlAtnDWS7G8-13" value="pgr_findClosestEdge in &lt;font color=&quot;#cc6600&quot;&gt;ways&lt;/font&gt;" style="edgeLabel;html=1;align=center;verticalAlign=bottom;resizable=0;points=[];fontColor=#0000FF;labelBackgroundColor=default;" parent="p0byIvA4VLlAtnDWS7G8-12" vertex="1" connectable="0">
          <mxGeometry relative="1" as="geometry">
            <mxPoint as="offset" />
          </mxGeometry>
        </mxCell>
        <mxCell id="p0byIvA4VLlAtnDWS7G8-14" value="" style="html=1;points=[];perimeter=orthogonalPerimeter;rounded=0;shadow=0;comic=0;labelBackgroundColor=default;strokeWidth=1;fontFamily=Helvetica;fontSize=12;align=center;fillColor=#fff2cc;strokeColor=#d6b656;" parent="7baba1c4bc27f4b0-3" vertex="1">
          <mxGeometry x="-120" y="1283" width="10" height="120" as="geometry" />
        </mxCell>
        <mxCell id="bnFm4gvqlaWau3aMOQDy-35" value="" style="html=1;verticalAlign=bottom;endArrow=block;rounded=0;endFill=1;endSize=6;fontFamily=Helvetica;labelBackgroundColor=default;exitX=1.106;exitY=0.045;exitDx=0;exitDy=0;exitPerimeter=0;" parent="7baba1c4bc27f4b0-3" source="bnFm4gvqlaWau3aMOQDy-72" edge="1">
          <mxGeometry x="0.0032" relative="1" as="geometry">
            <mxPoint x="-529.7222222222222" y="440" as="sourcePoint" />
            <mxPoint as="offset" />
            <mxPoint x="246.5" y="440" as="targetPoint" />
          </mxGeometry>
        </mxCell>
        <mxCell id="bnFm4gvqlaWau3aMOQDy-36" value="&lt;font color=&quot;#000000&quot;&gt;Query for &lt;/font&gt;&lt;font color=&quot;#cc6600&quot;&gt;ways_vertices_pgr&lt;/font&gt;&lt;font color=&quot;#000000&quot;&gt; IRI via SPARQL&lt;/font&gt;" style="edgeLabel;html=1;align=center;verticalAlign=bottom;resizable=0;points=[];fontColor=#0000FF;labelBackgroundColor=default;" parent="bnFm4gvqlaWau3aMOQDy-35" vertex="1" connectable="0">
          <mxGeometry relative="1" as="geometry">
            <mxPoint as="offset" />
          </mxGeometry>
        </mxCell>
        <mxCell id="D4LD1-zY_V6yE9AB68lD-1" value="" style="html=1;points=[];perimeter=orthogonalPerimeter;fillColor=#f8cecc;fontFamily=Helvetica;strokeColor=#b85450;labelBackgroundColor=default;" parent="7baba1c4bc27f4b0-3" vertex="1">
          <mxGeometry x="55" y="500" width="10" height="182" as="geometry" />
        </mxCell>
        <mxCell id="7baba1c4bc27f4b0-4" value="TWA KG" style="shape=umlLifeline;perimeter=lifelinePerimeter;whiteSpace=wrap;html=1;container=1;collapsible=0;recursiveResize=0;outlineConnect=0;rounded=1;shadow=0;comic=0;labelBackgroundColor=none;strokeWidth=1;fontFamily=Helvetica;fontSize=12;align=center;fillColor=#d5e8d4;strokeColor=#82b366;" parent="1" vertex="1">
          <mxGeometry x="1020" y="80" width="100" height="1390" as="geometry" />
        </mxCell>
        <mxCell id="jPtnPKBCRb5HNoMUkQSy-8" value="" style="html=1;points=[];perimeter=orthogonalPerimeter;fillColor=#d5e8d4;fontFamily=Helvetica;strokeColor=#82b366;labelBackgroundColor=default;" parent="7baba1c4bc27f4b0-4" vertex="1">
          <mxGeometry x="44.5" y="191.12" width="10" height="30" as="geometry" />
        </mxCell>
        <mxCell id="yroGHbSk9mLoKnZrlHjl-14" value="" style="html=1;points=[];perimeter=orthogonalPerimeter;fillColor=#d5e8d4;fontFamily=Helvetica;strokeColor=#82b366;labelBackgroundColor=default;" parent="7baba1c4bc27f4b0-4" vertex="1">
          <mxGeometry x="44.5" y="740" width="10" height="51.12" as="geometry" />
        </mxCell>
        <mxCell id="p0byIvA4VLlAtnDWS7G8-23" value="" style="html=1;points=[];perimeter=orthogonalPerimeter;fillColor=#d5e8d4;fontFamily=Helvetica;strokeColor=#82b366;labelBackgroundColor=default;" parent="7baba1c4bc27f4b0-4" vertex="1">
          <mxGeometry x="44.5" y="1244" width="10" height="49" as="geometry" />
        </mxCell>
        <mxCell id="t-bIzOMGR2YMaXMkrY-F-2" value="&lt;br&gt;Semantic tag:&lt;br&gt;1) TimeOfInput&lt;br&gt;2) Source&lt;br&gt;3) Target Node" style="html=1;verticalAlign=bottom;endArrow=block;rounded=0;endFill=1;fontFamily=Helvetica;" parent="7baba1c4bc27f4b0-4" edge="1">
          <mxGeometry relative="1" as="geometry">
            <mxPoint x="-130" y="674" as="sourcePoint" />
            <mxPoint x="50" y="674" as="targetPoint" />
            <mxPoint as="offset" />
          </mxGeometry>
        </mxCell>
        <mxCell id="t-bIzOMGR2YMaXMkrY-F-3" value="" style="html=1;points=[];perimeter=orthogonalPerimeter;fillColor=#d5e8d4;fontFamily=Helvetica;strokeColor=#82b366;labelBackgroundColor=default;" parent="7baba1c4bc27f4b0-4" vertex="1">
          <mxGeometry x="45" y="664" width="10" height="30" as="geometry" />
        </mxCell>
        <mxCell id="t-bIzOMGR2YMaXMkrY-F-6" value="Semantic tag:&lt;br&gt;1)&amp;nbsp;&lt;font color=&quot;#cc6600&quot;&gt;Isochrone Table&lt;/font&gt;&amp;nbsp;IRI" style="html=1;verticalAlign=bottom;endArrow=block;rounded=0;endFill=1;fontFamily=Helvetica;" parent="7baba1c4bc27f4b0-4" edge="1">
          <mxGeometry relative="1" as="geometry">
            <mxPoint x="-130.5" y="946" as="sourcePoint" />
            <mxPoint x="49.5" y="946" as="targetPoint" />
            <mxPoint as="offset" />
          </mxGeometry>
        </mxCell>
        <mxCell id="t-bIzOMGR2YMaXMkrY-F-7" value="" style="html=1;points=[];perimeter=orthogonalPerimeter;fillColor=#d5e8d4;fontFamily=Helvetica;strokeColor=#82b366;labelBackgroundColor=default;" parent="7baba1c4bc27f4b0-4" vertex="1">
          <mxGeometry x="44.5" y="936" width="10" height="30" as="geometry" />
        </mxCell>
        <mxCell id="t-bIzOMGR2YMaXMkrY-F-8" value="Semantic tag:&lt;br style=&quot;border-color: var(--border-color);&quot;&gt;1) &lt;font style=&quot;border-color: var(--border-color);&quot; color=&quot;#cc6600&quot;&gt;Isochrone Table&lt;/font&gt;&amp;nbsp;IRI" style="html=1;verticalAlign=bottom;endArrow=block;rounded=0;endFill=1;fontFamily=Helvetica;" parent="7baba1c4bc27f4b0-4" edge="1">
          <mxGeometry relative="1" as="geometry">
            <mxPoint x="-131.5" y="1183" as="sourcePoint" />
            <mxPoint x="48.5" y="1183" as="targetPoint" />
            <mxPoint as="offset" />
          </mxGeometry>
        </mxCell>
        <mxCell id="t-bIzOMGR2YMaXMkrY-F-9" value="" style="html=1;points=[];perimeter=orthogonalPerimeter;fillColor=#d5e8d4;fontFamily=Helvetica;strokeColor=#82b366;labelBackgroundColor=default;" parent="7baba1c4bc27f4b0-4" vertex="1">
          <mxGeometry x="43.5" y="1173" width="10" height="30" as="geometry" />
        </mxCell>
        <mxCell id="t-bIzOMGR2YMaXMkrY-F-15" value="Semantic tag:&lt;br&gt;1) Djikstra CostMatrix Table &lt;font color=&quot;#cc6600&quot;&gt;tsp &lt;/font&gt;IRI&amp;nbsp;" style="html=1;verticalAlign=bottom;endArrow=block;rounded=0;endFill=1;fontFamily=Helvetica;entryX=-0.228;entryY=0.353;entryDx=0;entryDy=0;entryPerimeter=0;" parent="7baba1c4bc27f4b0-4" target="t-bIzOMGR2YMaXMkrY-F-16" edge="1">
          <mxGeometry relative="1" as="geometry">
            <mxPoint x="-131.5" y="1463" as="sourcePoint" />
            <mxPoint x="48.5" y="1463" as="targetPoint" />
            <mxPoint as="offset" />
          </mxGeometry>
        </mxCell>
        <mxCell id="t-bIzOMGR2YMaXMkrY-F-16" value="" style="html=1;points=[];perimeter=orthogonalPerimeter;fillColor=#d5e8d4;fontFamily=Helvetica;strokeColor=#82b366;labelBackgroundColor=default;" parent="7baba1c4bc27f4b0-4" vertex="1">
          <mxGeometry x="43.5" y="1453" width="10" height="30" as="geometry" />
        </mxCell>
        <mxCell id="UIIr30xV4heyDFPr3auX-9" value="" style="html=1;points=[];perimeter=orthogonalPerimeter;fillColor=#d5e8d4;fontFamily=Helvetica;strokeColor=#82b366;labelBackgroundColor=default;" parent="7baba1c4bc27f4b0-4" vertex="1">
          <mxGeometry x="45" y="430" width="10" height="60" as="geometry" />
        </mxCell>
        <mxCell id="t_Ti84ju1iwW1GZTYooi-62" value="" style="endArrow=none;dashed=1;html=1;rounded=0;labelBackgroundColor=default;fontFamily=Helvetica;fontSize=11;endSize=6;fillColor=#f5f5f5;strokeColor=#666666;" parent="1" edge="1">
          <mxGeometry width="50" height="50" relative="1" as="geometry">
            <mxPoint x="200" y="1470" as="sourcePoint" />
            <mxPoint x="199.8" y="118" as="targetPoint" />
          </mxGeometry>
        </mxCell>
        <mxCell id="t_Ti84ju1iwW1GZTYooi-63" value="" style="shape=actor;whiteSpace=wrap;html=1;fontFamily=Helvetica;fontSize=11;fillColor=#f5f5f5;strokeColor=#666666;fontColor=#333333;labelBackgroundColor=default;" parent="1" vertex="1">
          <mxGeometry x="180" y="79" width="40" height="40" as="geometry" />
        </mxCell>
        <mxCell id="jPtnPKBCRb5HNoMUkQSy-3" value="&lt;span style=&quot;font-size: 11px;&quot;&gt;Import data via osm2pgrouting&lt;br&gt;&lt;/span&gt;" style="html=1;verticalAlign=bottom;endArrow=block;labelBackgroundColor=default;fontFamily=Helvetica;fontSize=12;edgeStyle=elbowEdgeStyle;elbow=vertical;entryX=0.101;entryY=0.33;entryDx=0;entryDy=0;entryPerimeter=0;" parent="1" source="bnFm4gvqlaWau3aMOQDy-2" target="jPtnPKBCRb5HNoMUkQSy-12" edge="1">
          <mxGeometry x="-0.0022" relative="1" as="geometry">
            <mxPoint x="712.92" y="200.56" as="sourcePoint" />
            <mxPoint as="offset" />
            <mxPoint x="872" y="201" as="targetPoint" />
            <Array as="points">
              <mxPoint x="872" y="201" />
            </Array>
          </mxGeometry>
        </mxCell>
        <mxCell id="jPtnPKBCRb5HNoMUkQSy-7" value="&lt;span style=&quot;font-size: 11px;&quot;&gt;pgr_Topology&lt;br&gt;&lt;/span&gt;" style="html=1;verticalAlign=bottom;endArrow=block;labelBackgroundColor=default;fontFamily=Helvetica;fontSize=12;edgeStyle=elbowEdgeStyle;elbow=vertical;entryX=0.101;entryY=0.846;entryDx=0;entryDy=0;entryPerimeter=0;" parent="1" source="bnFm4gvqlaWau3aMOQDy-2" target="jPtnPKBCRb5HNoMUkQSy-12" edge="1">
          <mxGeometry x="-0.0008" relative="1" as="geometry">
            <mxPoint x="712" y="220" as="sourcePoint" />
            <mxPoint as="offset" />
            <mxPoint x="872" y="220" as="targetPoint" />
            <Array as="points">
              <mxPoint x="872" y="220" />
              <mxPoint x="877" y="230" />
              <mxPoint x="812" y="210" />
            </Array>
          </mxGeometry>
        </mxCell>
        <mxCell id="jPtnPKBCRb5HNoMUkQSy-9" value="Query flood and elevation data based on OSM data bounding box" style="html=1;verticalAlign=bottom;endArrow=block;entryX=0;entryY=0;rounded=0;endFill=1;endSize=6;fontFamily=Helvetica;labelBackgroundColor=default;" parent="1" target="jPtnPKBCRb5HNoMUkQSy-8" edge="1">
          <mxGeometry x="0.0029" relative="1" as="geometry">
            <mxPoint x="562" y="271" as="sourcePoint" />
            <mxPoint as="offset" />
          </mxGeometry>
        </mxCell>
        <mxCell id="t_Ti84ju1iwW1GZTYooi-21" value="return raster as Postgis table IRI" style="html=1;verticalAlign=bottom;endArrow=block;dashed=1;endSize=6;exitX=0.046;exitY=0.992;rounded=0;endFill=1;fontFamily=Helvetica;exitDx=0;exitDy=0;exitPerimeter=0;labelBackgroundColor=default;" parent="1" source="jPtnPKBCRb5HNoMUkQSy-8" target="bnFm4gvqlaWau3aMOQDy-2" edge="1">
          <mxGeometry x="-0.0456" y="-1" relative="1" as="geometry">
            <mxPoint x="893" y="300" as="targetPoint" />
            <mxPoint x="1017.5" y="340.5200000000001" as="sourcePoint" />
            <mxPoint as="offset" />
          </mxGeometry>
        </mxCell>
        <mxCell id="jPtnPKBCRb5HNoMUkQSy-18" value="&lt;font style=&quot;font-size: 11px&quot;&gt;Input ShapeFile or .osm data&lt;br&gt;&lt;/font&gt;" style="html=1;verticalAlign=bottom;endArrow=block;labelBackgroundColor=default;fontFamily=Helvetica;fontSize=12;edgeStyle=elbowEdgeStyle;elbow=vertical;" parent="1" target="bnFm4gvqlaWau3aMOQDy-2" edge="1">
          <mxGeometry relative="1" as="geometry">
            <mxPoint x="200" y="200" as="sourcePoint" />
            <mxPoint as="offset" />
            <mxPoint x="300" y="200" as="targetPoint" />
            <Array as="points">
              <mxPoint x="290" y="200" />
            </Array>
          </mxGeometry>
        </mxCell>
        <mxCell id="jPtnPKBCRb5HNoMUkQSy-19" value="&lt;span style=&quot;font-size: 11px;&quot;&gt;Create Extension pg_Routing&amp;nbsp;&lt;br&gt;&lt;/span&gt;" style="html=1;verticalAlign=bottom;endArrow=block;labelBackgroundColor=default;fontFamily=Helvetica;fontSize=12;edgeStyle=elbowEdgeStyle;elbow=vertical;entryX=0.125;entryY=0.076;entryDx=0;entryDy=0;entryPerimeter=0;shadow=0;" parent="1" source="bnFm4gvqlaWau3aMOQDy-2" edge="1">
          <mxGeometry relative="1" as="geometry">
            <mxPoint x="712" y="160" as="sourcePoint" />
            <mxPoint as="offset" />
            <mxPoint x="878" y="160" as="targetPoint" />
            <Array as="points">
              <mxPoint x="872" y="160" />
            </Array>
          </mxGeometry>
        </mxCell>
        <mxCell id="jPtnPKBCRb5HNoMUkQSy-35" value="" style="rounded=1;whiteSpace=wrap;html=1;labelBackgroundColor=default;" parent="1" vertex="1">
          <mxGeometry x="1710" y="30" width="190" height="101" as="geometry" />
        </mxCell>
        <mxCell id="jPtnPKBCRb5HNoMUkQSy-36" value="" style="rounded=0;whiteSpace=wrap;html=1;fillColor=#dae8fc;strokeColor=#6c8ebf;labelBackgroundColor=default;" parent="1" vertex="1">
          <mxGeometry x="1720" y="40" width="40" height="20" as="geometry" />
        </mxCell>
        <mxCell id="jPtnPKBCRb5HNoMUkQSy-37" value="Blue coloured texts refers to SQL Query" style="text;html=1;strokeColor=none;fillColor=none;align=center;verticalAlign=middle;whiteSpace=wrap;rounded=0;fontSize=10;fontColor=#3333FF;labelBackgroundColor=default;" parent="1" vertex="1">
          <mxGeometry x="1760" y="40" width="140" height="30" as="geometry" />
        </mxCell>
        <mxCell id="jPtnPKBCRb5HNoMUkQSy-38" value="" style="html=1;verticalAlign=bottom;endArrow=block;rounded=0;endFill=1;endSize=6;fontFamily=Helvetica;entryX=-0.141;entryY=0.306;entryDx=0;entryDy=0;entryPerimeter=0;exitX=1.105;exitY=0.963;exitDx=0;exitDy=0;exitPerimeter=0;labelBackgroundColor=default;" parent="1" edge="1">
          <mxGeometry x="0.0032" relative="1" as="geometry">
            <mxPoint x="563.05" y="413.38" as="sourcePoint" />
            <mxPoint as="offset" />
            <mxPoint x="876.5899999999999" y="413.15999999999997" as="targetPoint" />
          </mxGeometry>
        </mxCell>
        <mxCell id="jPtnPKBCRb5HNoMUkQSy-39" value="Modify cost_flood ways that intersects with flood in &lt;font color=&quot;#cc6600&quot;&gt;ways&lt;/font&gt;" style="edgeLabel;html=1;align=center;verticalAlign=bottom;resizable=0;points=[];fontColor=#0000FF;labelBackgroundColor=default;" parent="jPtnPKBCRb5HNoMUkQSy-38" vertex="1" connectable="0">
          <mxGeometry relative="1" as="geometry">
            <mxPoint as="offset" />
          </mxGeometry>
        </mxCell>
        <mxCell id="yroGHbSk9mLoKnZrlHjl-6" value="&lt;font style=&quot;font-size: 11px&quot;&gt;Input point A/&lt;br&gt;point B Coordinates&lt;br&gt;via cursor marker&lt;br&gt;&lt;/font&gt;" style="html=1;verticalAlign=bottom;endArrow=block;labelBackgroundColor=default;fontFamily=Helvetica;fontSize=12;edgeStyle=elbowEdgeStyle;elbow=vertical;" parent="1" edge="1">
          <mxGeometry relative="1" as="geometry">
            <mxPoint x="200" y="522" as="sourcePoint" />
            <mxPoint as="offset" />
            <mxPoint x="294.50000000000045" y="522.8888888888887" as="targetPoint" />
          </mxGeometry>
        </mxCell>
        <mxCell id="yroGHbSk9mLoKnZrlHjl-12" value="Input Selection of Points of Interest" style="html=1;verticalAlign=bottom;endArrow=block;labelBackgroundColor=default;fontFamily=Helvetica;fontSize=12;edgeStyle=elbowEdgeStyle;elbow=vertical;" parent="1" edge="1">
          <mxGeometry relative="1" as="geometry">
            <mxPoint x="200" y="840" as="sourcePoint" />
            <mxPoint as="offset" />
            <mxPoint x="707.5" y="839.3333333333335" as="targetPoint" />
          </mxGeometry>
        </mxCell>
        <mxCell id="yroGHbSk9mLoKnZrlHjl-17" value="" style="html=1;points=[];perimeter=orthogonalPerimeter;rounded=0;shadow=0;comic=0;labelBackgroundColor=default;strokeWidth=1;fontFamily=Helvetica;fontSize=12;align=center;fillColor=#fff2cc;strokeColor=#d6b656;" parent="1" vertex="1">
          <mxGeometry x="703" y="814" width="10" height="170" as="geometry" />
        </mxCell>
        <mxCell id="yroGHbSk9mLoKnZrlHjl-29" value="&lt;span style=&quot;font-size: 11px;&quot;&gt;Input Selection of Points of Interest&lt;/span&gt;" style="html=1;verticalAlign=bottom;endArrow=block;labelBackgroundColor=default;fontFamily=Helvetica;fontSize=12;edgeStyle=elbowEdgeStyle;elbow=vertical;" parent="1" edge="1">
          <mxGeometry x="0.0009" relative="1" as="geometry">
            <mxPoint x="200" y="1080.03" as="sourcePoint" />
            <mxPoint as="offset" />
            <mxPoint x="707.5" y="1079.3333333333335" as="targetPoint" />
          </mxGeometry>
        </mxCell>
        <mxCell id="yroGHbSk9mLoKnZrlHjl-30" value="" style="html=1;points=[];perimeter=orthogonalPerimeter;fillColor=#f8cecc;fontFamily=Helvetica;strokeColor=#b85450;labelBackgroundColor=default;" parent="1" vertex="1">
          <mxGeometry x="878" y="1060" width="10" height="214" as="geometry" />
        </mxCell>
        <mxCell id="yroGHbSk9mLoKnZrlHjl-31" value="" style="html=1;verticalAlign=bottom;endArrow=block;rounded=0;endFill=1;endSize=6;fontFamily=Helvetica;exitX=1.143;exitY=0.544;exitDx=0;exitDy=0;exitPerimeter=0;entryX=0.077;entryY=0.095;entryDx=0;entryDy=0;entryPerimeter=0;labelBackgroundColor=default;" parent="1" target="yroGHbSk9mLoKnZrlHjl-30" edge="1">
          <mxGeometry x="0.0032" relative="1" as="geometry">
            <mxPoint x="713" y="1080" as="sourcePoint" />
            <mxPoint as="offset" />
            <mxPoint x="863" y="1080" as="targetPoint" />
          </mxGeometry>
        </mxCell>
        <mxCell id="yroGHbSk9mLoKnZrlHjl-32" value="Calculate Trip Centrality" style="edgeLabel;html=1;align=center;verticalAlign=bottom;resizable=0;points=[];fontColor=#0000FF;labelBackgroundColor=default;" parent="yroGHbSk9mLoKnZrlHjl-31" vertex="1" connectable="0">
          <mxGeometry relative="1" as="geometry">
            <mxPoint as="offset" />
          </mxGeometry>
        </mxCell>
        <mxCell id="yroGHbSk9mLoKnZrlHjl-37" value="" style="html=1;verticalAlign=bottom;endArrow=block;rounded=0;endFill=1;endSize=6;fontFamily=Helvetica;labelBackgroundColor=default;" parent="1" edge="1">
          <mxGeometry x="0.0032" relative="1" as="geometry">
            <mxPoint x="713" y="1154" as="sourcePoint" />
            <mxPoint as="offset" />
            <mxPoint x="878" y="1154" as="targetPoint" />
          </mxGeometry>
        </mxCell>
        <mxCell id="yroGHbSk9mLoKnZrlHjl-38" value="Modify cost_flood of route&lt;br&gt;with highest trip centrality in &lt;font color=&quot;#cc6600&quot;&gt;ways&lt;/font&gt;" style="edgeLabel;html=1;align=center;verticalAlign=bottom;resizable=0;points=[];fontColor=#0000FF;labelBackgroundColor=default;" parent="yroGHbSk9mLoKnZrlHjl-37" vertex="1" connectable="0">
          <mxGeometry relative="1" as="geometry">
            <mxPoint as="offset" />
          </mxGeometry>
        </mxCell>
        <mxCell id="yroGHbSk9mLoKnZrlHjl-46" value="" style="html=1;points=[];perimeter=orthogonalPerimeter;rounded=0;shadow=0;comic=0;labelBackgroundColor=default;strokeWidth=1;fontFamily=Helvetica;fontSize=12;align=center;fillColor=#fff2cc;strokeColor=#d6b656;" parent="1" vertex="1">
          <mxGeometry x="703" y="1060" width="10" height="154" as="geometry" />
        </mxCell>
        <mxCell id="yroGHbSk9mLoKnZrlHjl-48" value="" style="endArrow=none;dashed=1;html=1;rounded=0;labelBackgroundColor=default;" parent="1" edge="1">
          <mxGeometry width="50" height="50" relative="1" as="geometry">
            <mxPoint x="10" y="784" as="sourcePoint" />
            <mxPoint x="1730" y="784" as="targetPoint" />
          </mxGeometry>
        </mxCell>
        <mxCell id="yroGHbSk9mLoKnZrlHjl-49" value="" style="endArrow=none;dashed=1;html=1;rounded=0;labelBackgroundColor=default;" parent="1" edge="1">
          <mxGeometry width="50" height="50" relative="1" as="geometry">
            <mxPoint x="10" y="1054" as="sourcePoint" />
            <mxPoint x="1800" y="1050" as="targetPoint" />
          </mxGeometry>
        </mxCell>
        <mxCell id="yroGHbSk9mLoKnZrlHjl-51" value="Shortest Route from &lt;br&gt;Point A to Point B under flood&amp;nbsp;" style="text;html=1;strokeColor=none;fillColor=none;align=left;verticalAlign=middle;whiteSpace=wrap;rounded=0;fontColor=#FF0000;fontStyle=5;labelBackgroundColor=default;" parent="1" vertex="1">
          <mxGeometry y="430" width="180" height="50" as="geometry" />
        </mxCell>
        <mxCell id="yroGHbSk9mLoKnZrlHjl-53" value="Isochrone Map under flood" style="text;html=1;strokeColor=none;fillColor=none;align=left;verticalAlign=middle;whiteSpace=wrap;rounded=0;fontColor=#FF0000;fontStyle=5;labelBackgroundColor=default;" parent="1" vertex="1">
          <mxGeometry x="10" y="804" width="160" height="40" as="geometry" />
        </mxCell>
        <mxCell id="p0byIvA4VLlAtnDWS7G8-30" value="" style="endArrow=none;dashed=1;html=1;rounded=0;labelBackgroundColor=default;" parent="1" edge="1">
          <mxGeometry width="50" height="50" relative="1" as="geometry">
            <mxPoint x="20" y="1294" as="sourcePoint" />
            <mxPoint x="1180" y="1294" as="targetPoint" />
          </mxGeometry>
        </mxCell>
        <mxCell id="bnFm4gvqlaWau3aMOQDy-2" value="Input Agent" style="shape=umlLifeline;perimeter=lifelinePerimeter;whiteSpace=wrap;html=1;container=1;collapsible=0;recursiveResize=0;outlineConnect=0;rounded=1;shadow=0;comic=0;labelBackgroundColor=none;strokeWidth=1;fontFamily=Helvetica;fontSize=12;align=center;fillColor=#ffe6cc;strokeColor=#d79b00;size=40;" parent="1" vertex="1">
          <mxGeometry x="502" y="80" width="110" height="1390" as="geometry" />
        </mxCell>
        <mxCell id="bnFm4gvqlaWau3aMOQDy-3" value="" style="html=1;points=[];perimeter=orthogonalPerimeter;rounded=0;shadow=0;comic=0;labelBackgroundColor=default;strokeWidth=1;fontFamily=Helvetica;fontSize=12;align=center;fillColor=#ffe6cc;strokeColor=#d79b00;" parent="bnFm4gvqlaWau3aMOQDy-2" vertex="1">
          <mxGeometry x="50" y="70" width="10" height="270" as="geometry" />
        </mxCell>
        <mxCell id="UIIr30xV4heyDFPr3auX-11" value="" style="html=1;verticalAlign=bottom;endArrow=block;rounded=0;endFill=1;endSize=6;fontFamily=Helvetica;labelBackgroundColor=default;exitX=1.106;exitY=0.045;exitDx=0;exitDy=0;exitPerimeter=0;" parent="bnFm4gvqlaWau3aMOQDy-2" edge="1">
          <mxGeometry x="0.0032" relative="1" as="geometry">
            <mxPoint x="-199" y="507" as="sourcePoint" />
            <mxPoint as="offset" />
            <mxPoint x="376" y="507" as="targetPoint" />
          </mxGeometry>
        </mxCell>
        <mxCell id="UIIr30xV4heyDFPr3auX-12" value="Find nearest node in &lt;font color=&quot;#cc6600&quot;&gt;ways_vertices_pgr&lt;/font&gt;" style="edgeLabel;html=1;align=center;verticalAlign=bottom;resizable=0;points=[];fontColor=#0000FF;labelBackgroundColor=default;" parent="UIIr30xV4heyDFPr3auX-11" vertex="1" connectable="0">
          <mxGeometry relative="1" as="geometry">
            <mxPoint as="offset" />
          </mxGeometry>
        </mxCell>
        <mxCell id="jPtnPKBCRb5HNoMUkQSy-33" value="" style="html=1;verticalAlign=bottom;endArrow=block;rounded=0;endFill=1;endSize=6;fontFamily=Helvetica;exitX=1.135;exitY=0.579;exitDx=0;exitDy=0;exitPerimeter=0;entryX=0.038;entryY=0.029;entryDx=0;entryDy=0;entryPerimeter=0;labelBackgroundColor=default;" parent="1" edge="1">
          <mxGeometry x="0.0032" relative="1" as="geometry">
            <mxPoint x="563.35" y="322.54" as="sourcePoint" />
            <mxPoint as="offset" />
            <mxPoint x="878.3800000000001" y="322.44" as="targetPoint" />
          </mxGeometry>
        </mxCell>
        <mxCell id="jPtnPKBCRb5HNoMUkQSy-34" value="Add elevation to nodes in &lt;font color=&quot;#cc6600&quot;&gt;ways_vertices&lt;/font&gt;" style="edgeLabel;html=1;align=center;verticalAlign=bottom;resizable=0;points=[];fontColor=#0000FF;labelBackgroundColor=default;" parent="jPtnPKBCRb5HNoMUkQSy-33" vertex="1" connectable="0">
          <mxGeometry relative="1" as="geometry">
            <mxPoint as="offset" />
          </mxGeometry>
        </mxCell>
        <mxCell id="jPtnPKBCRb5HNoMUkQSy-31" value="" style="html=1;verticalAlign=bottom;endArrow=block;rounded=0;endFill=1;endSize=6;fontFamily=Helvetica;exitX=1.153;exitY=0.805;exitDx=0;exitDy=0;exitPerimeter=0;entryX=-0.115;entryY=0.197;entryDx=0;entryDy=0;entryPerimeter=0;labelBackgroundColor=default;" parent="1" edge="1">
          <mxGeometry x="0.0032" relative="1" as="geometry">
            <mxPoint x="563.5300000000001" y="381.29999999999995" as="sourcePoint" />
            <mxPoint as="offset" />
            <mxPoint x="876.8499999999999" y="382.91999999999996" as="targetPoint" />
          </mxGeometry>
        </mxCell>
        <mxCell id="jPtnPKBCRb5HNoMUkQSy-32" value="Create column of cost_flood in&amp;nbsp;&lt;font color=&quot;#cc6600&quot;&gt;ways&lt;/font&gt;" style="edgeLabel;html=1;align=center;verticalAlign=bottom;resizable=0;points=[];fontColor=#0000FF;labelBackgroundColor=default;" parent="jPtnPKBCRb5HNoMUkQSy-31" vertex="1" connectable="0">
          <mxGeometry relative="1" as="geometry">
            <mxPoint as="offset" />
          </mxGeometry>
        </mxCell>
        <mxCell id="jPtnPKBCRb5HNoMUkQSy-28" value="" style="html=1;verticalAlign=bottom;endArrow=block;rounded=0;endFill=1;endSize=6;fontFamily=Helvetica;exitX=1.082;exitY=0.69;exitDx=0;exitDy=0;exitPerimeter=0;labelBackgroundColor=default;" parent="1" edge="1">
          <mxGeometry x="0.0032" relative="1" as="geometry">
            <mxPoint x="562.8199999999999" y="351.4" as="sourcePoint" />
            <mxPoint as="offset" />
            <mxPoint x="880" y="351" as="targetPoint" />
          </mxGeometry>
        </mxCell>
        <mxCell id="jPtnPKBCRb5HNoMUkQSy-29" value="Calculate Slope and store in &lt;font color=&quot;#cc6600&quot;&gt;ways&lt;/font&gt;" style="edgeLabel;html=1;align=center;verticalAlign=bottom;resizable=0;points=[];fontColor=#0000FF;labelBackgroundColor=default;" parent="jPtnPKBCRb5HNoMUkQSy-28" vertex="1" connectable="0">
          <mxGeometry relative="1" as="geometry">
            <mxPoint as="offset" />
          </mxGeometry>
        </mxCell>
        <mxCell id="yroGHbSk9mLoKnZrlHjl-3" value="" style="html=1;verticalAlign=bottom;endArrow=block;rounded=0;endFill=1;endSize=6;fontFamily=Helvetica;entryX=0.186;entryY=0.12;entryDx=0;entryDy=0;entryPerimeter=0;labelBackgroundColor=default;" parent="1" edge="1">
          <mxGeometry x="0.0032" relative="1" as="geometry">
            <mxPoint x="295.02380952380963" y="692.6" as="sourcePoint" />
            <mxPoint as="offset" />
            <mxPoint x="420.8599999999999" y="692.6" as="targetPoint" />
          </mxGeometry>
        </mxCell>
        <mxCell id="yroGHbSk9mLoKnZrlHjl-4" value="Input source, &lt;br style=&quot;font-size: 11px;&quot;&gt;target node" style="edgeLabel;html=1;align=center;verticalAlign=bottom;resizable=0;points=[];fontColor=#000000;fontSize=11;labelBackgroundColor=default;" parent="yroGHbSk9mLoKnZrlHjl-3" vertex="1" connectable="0">
          <mxGeometry relative="1" as="geometry">
            <mxPoint as="offset" />
          </mxGeometry>
        </mxCell>
        <mxCell id="bnFm4gvqlaWau3aMOQDy-37" value="&lt;font style=&quot;font-size: 11px&quot;&gt;return source, target node (int)&amp;nbsp;&amp;nbsp;&lt;/font&gt;" style="html=1;verticalAlign=bottom;endArrow=none;labelBackgroundColor=default;fontFamily=Helvetica;fontSize=11;edgeStyle=elbowEdgeStyle;elbow=vertical;dashed=1;startArrow=block;startFill=1;endFill=0;rounded=0;endSize=6;" parent="1" source="bnFm4gvqlaWau3aMOQDy-41" edge="1">
          <mxGeometry relative="1" as="geometry">
            <mxPoint x="293.2777777777778" y="618" as="sourcePoint" />
            <mxPoint x="878" y="618" as="targetPoint" />
            <Array as="points">
              <mxPoint x="713" y="618" />
            </Array>
          </mxGeometry>
        </mxCell>
        <mxCell id="bnFm4gvqlaWau3aMOQDy-38" value="Presumably this is best preprocessed on digital ocean" style="text;html=1;strokeColor=none;fillColor=none;align=center;verticalAlign=middle;whiteSpace=wrap;rounded=0;labelBackgroundColor=default;" parent="1" vertex="1">
          <mxGeometry x="800.5" y="40" width="165" height="31" as="geometry" />
        </mxCell>
        <mxCell id="bnFm4gvqlaWau3aMOQDy-40" value="Preprocessing" style="text;html=1;strokeColor=none;fillColor=none;align=left;verticalAlign=middle;whiteSpace=wrap;rounded=0;fontColor=#FF0000;fontStyle=5;labelBackgroundColor=default;" parent="1" vertex="1">
          <mxGeometry x="20" y="119" width="90" height="50" as="geometry" />
        </mxCell>
        <mxCell id="bnFm4gvqlaWau3aMOQDy-41" value="DTVF" style="shape=umlLifeline;perimeter=lifelinePerimeter;whiteSpace=wrap;html=1;container=1;collapsible=0;recursiveResize=0;outlineConnect=0;rounded=1;shadow=0;comic=0;labelBackgroundColor=none;strokeWidth=1;fontFamily=Helvetica;fontSize=12;align=center;fillColor=#dae8fc;strokeColor=#6c8ebf;size=40;" parent="1" vertex="1">
          <mxGeometry x="240" y="79" width="110" height="1391" as="geometry" />
        </mxCell>
        <mxCell id="bnFm4gvqlaWau3aMOQDy-81" value="" style="html=1;points=[];perimeter=orthogonalPerimeter;rounded=0;shadow=0;comic=0;labelBackgroundColor=default;strokeWidth=1;fontFamily=Helvetica;fontSize=12;align=center;fillColor=#dae8fc;strokeColor=#6c8ebf;" parent="bnFm4gvqlaWau3aMOQDy-41" vertex="1">
          <mxGeometry x="50" y="903" width="10" height="51" as="geometry" />
        </mxCell>
        <mxCell id="bnFm4gvqlaWau3aMOQDy-89" value="" style="html=1;points=[];perimeter=orthogonalPerimeter;rounded=0;shadow=0;comic=0;labelBackgroundColor=default;strokeWidth=1;fontFamily=Helvetica;fontSize=12;align=center;fillColor=#dae8fc;strokeColor=#6c8ebf;" parent="bnFm4gvqlaWau3aMOQDy-41" vertex="1">
          <mxGeometry x="50" y="1134" width="10" height="60" as="geometry" />
        </mxCell>
        <mxCell id="bnFm4gvqlaWau3aMOQDy-91" value="return polygon&lt;br style=&quot;border-color: var(--border-color);&quot;&gt;coordinates (Geojson)" style="html=1;verticalAlign=bottom;endArrow=none;labelBackgroundColor=default;fontFamily=Helvetica;fontSize=11;edgeStyle=elbowEdgeStyle;elbow=vertical;dashed=1;startArrow=block;startFill=1;endFill=0;rounded=0;endSize=6;" parent="bnFm4gvqlaWau3aMOQDy-41" edge="1">
          <mxGeometry y="3" relative="1" as="geometry">
            <mxPoint x="60" y="1185.5" as="sourcePoint" />
            <mxPoint x="180" y="1185.5" as="targetPoint" />
            <Array as="points">
              <mxPoint x="139" y="1185" />
              <mxPoint x="342" y="1171" />
            </Array>
            <mxPoint as="offset" />
          </mxGeometry>
        </mxCell>
        <mxCell id="bnFm4gvqlaWau3aMOQDy-100" value="" style="html=1;points=[];perimeter=orthogonalPerimeter;rounded=0;shadow=0;comic=0;labelBackgroundColor=default;strokeWidth=1;fontFamily=Helvetica;fontSize=12;align=center;fillColor=#dae8fc;strokeColor=#6c8ebf;" parent="bnFm4gvqlaWau3aMOQDy-41" vertex="1">
          <mxGeometry x="50" y="1414" width="10" height="60" as="geometry" />
        </mxCell>
        <mxCell id="bnFm4gvqlaWau3aMOQDy-59" value="Geoserver" style="shape=umlLifeline;perimeter=lifelinePerimeter;whiteSpace=wrap;html=1;container=1;collapsible=0;recursiveResize=0;outlineConnect=0;rounded=1;shadow=0;comic=0;labelBackgroundColor=none;strokeWidth=1;fontFamily=Helvetica;fontSize=12;align=center;fillColor=#d0cee2;strokeColor=#56517e;size=40;" parent="1" vertex="1">
          <mxGeometry x="369" y="80" width="111" height="1390" as="geometry" />
        </mxCell>
        <mxCell id="bnFm4gvqlaWau3aMOQDy-60" value="" style="html=1;points=[];perimeter=orthogonalPerimeter;rounded=0;shadow=0;comic=0;labelBackgroundColor=default;strokeWidth=1;fontFamily=Helvetica;fontSize=12;align=center;fillColor=#d0cee2;strokeColor=#56517e;" parent="bnFm4gvqlaWau3aMOQDy-59" vertex="1">
          <mxGeometry x="50" y="584" width="10" height="100" as="geometry" />
        </mxCell>
        <mxCell id="bnFm4gvqlaWau3aMOQDy-82" value="" style="html=1;points=[];perimeter=orthogonalPerimeter;rounded=0;shadow=0;comic=0;labelBackgroundColor=default;strokeWidth=1;fontFamily=Helvetica;fontSize=12;align=center;fillColor=#d0cee2;strokeColor=#56517e;" parent="bnFm4gvqlaWau3aMOQDy-59" vertex="1">
          <mxGeometry x="50" y="904" width="10" height="50" as="geometry" />
        </mxCell>
        <mxCell id="bnFm4gvqlaWau3aMOQDy-85" value="return polygon&lt;br style=&quot;border-color: var(--border-color);&quot;&gt;coordinates (Geojson)" style="html=1;verticalAlign=bottom;endArrow=none;labelBackgroundColor=default;fontFamily=Helvetica;fontSize=11;edgeStyle=elbowEdgeStyle;elbow=vertical;dashed=1;startArrow=block;startFill=1;endFill=0;rounded=0;endSize=6;" parent="bnFm4gvqlaWau3aMOQDy-59" edge="1">
          <mxGeometry y="3" relative="1" as="geometry">
            <mxPoint x="-69" y="948" as="sourcePoint" />
            <mxPoint x="51" y="948" as="targetPoint" />
            <Array as="points">
              <mxPoint x="11" y="948" />
              <mxPoint x="214" y="934" />
            </Array>
            <mxPoint as="offset" />
          </mxGeometry>
        </mxCell>
        <mxCell id="bnFm4gvqlaWau3aMOQDy-90" value="" style="html=1;points=[];perimeter=orthogonalPerimeter;rounded=0;shadow=0;comic=0;labelBackgroundColor=default;strokeWidth=1;fontFamily=Helvetica;fontSize=12;align=center;fillColor=#d0cee2;strokeColor=#56517e;" parent="bnFm4gvqlaWau3aMOQDy-59" vertex="1">
          <mxGeometry x="50" y="1134" width="10" height="60" as="geometry" />
        </mxCell>
        <mxCell id="bnFm4gvqlaWau3aMOQDy-39" value="Presumably in town size (King&#39;s Lynn, Pirmasens, Singapore)" style="text;html=1;strokeColor=none;fillColor=none;align=center;verticalAlign=middle;whiteSpace=wrap;rounded=0;fontSize=8;labelBackgroundColor=default;" parent="bnFm4gvqlaWau3aMOQDy-59" vertex="1">
          <mxGeometry x="-59" y="121" width="130" height="45.5" as="geometry" />
        </mxCell>
        <mxCell id="bnFm4gvqlaWau3aMOQDy-99" value="" style="html=1;points=[];perimeter=orthogonalPerimeter;rounded=0;shadow=0;comic=0;labelBackgroundColor=default;strokeWidth=1;fontFamily=Helvetica;fontSize=12;align=center;fillColor=#d0cee2;strokeColor=#56517e;" parent="bnFm4gvqlaWau3aMOQDy-59" vertex="1">
          <mxGeometry x="50" y="1414" width="10" height="60" as="geometry" />
        </mxCell>
        <mxCell id="p0byIvA4VLlAtnDWS7G8-28" value="" style="html=1;verticalAlign=bottom;endArrow=block;rounded=0;endFill=1;endSize=6;fontFamily=Helvetica;exitX=1.143;exitY=0.544;exitDx=0;exitDy=0;exitPerimeter=0;labelBackgroundColor=default;" parent="bnFm4gvqlaWau3aMOQDy-59" edge="1">
          <mxGeometry x="0.0032" relative="1" as="geometry">
            <mxPoint x="60" y="1436" as="sourcePoint" />
            <mxPoint as="offset" />
            <mxPoint x="513.5" y="1436" as="targetPoint" />
          </mxGeometry>
        </mxCell>
        <mxCell id="p0byIvA4VLlAtnDWS7G8-29" value="pgr_TSP from &lt;font color=&quot;#cc6600&quot;&gt;tsp &lt;/font&gt;in SQL view" style="edgeLabel;html=1;align=center;verticalAlign=bottom;resizable=0;points=[];fontColor=#0000FF;labelBackgroundColor=default;" parent="p0byIvA4VLlAtnDWS7G8-28" vertex="1" connectable="0">
          <mxGeometry relative="1" as="geometry">
            <mxPoint as="offset" />
          </mxGeometry>
        </mxCell>
        <mxCell id="bnFm4gvqlaWau3aMOQDy-102" value="return MultiLineString&lt;br style=&quot;border-color: var(--border-color);&quot;&gt;coordinates (Geojson)" style="html=1;verticalAlign=bottom;endArrow=none;labelBackgroundColor=default;fontFamily=Helvetica;fontSize=11;edgeStyle=elbowEdgeStyle;elbow=vertical;dashed=1;startArrow=block;startFill=1;endFill=0;rounded=0;endSize=6;" parent="bnFm4gvqlaWau3aMOQDy-59" edge="1">
          <mxGeometry x="0.0039" relative="1" as="geometry">
            <mxPoint x="-68" y="1464" as="sourcePoint" />
            <mxPoint x="52" y="1464" as="targetPoint" />
            <Array as="points" />
            <mxPoint as="offset" />
          </mxGeometry>
        </mxCell>
        <mxCell id="bnFm4gvqlaWau3aMOQDy-68" value="" style="html=1;verticalAlign=bottom;endArrow=block;rounded=0;endFill=1;endSize=6;fontFamily=Helvetica;labelBackgroundColor=default;" parent="1" edge="1">
          <mxGeometry x="0.0032" relative="1" as="geometry">
            <mxPoint x="430" y="694" as="sourcePoint" />
            <mxPoint as="offset" />
            <mxPoint x="878" y="694" as="targetPoint" />
          </mxGeometry>
        </mxCell>
        <mxCell id="bnFm4gvqlaWau3aMOQDy-69" value="pgr_Djikstra in SQL view" style="edgeLabel;html=1;align=center;verticalAlign=bottom;resizable=0;points=[];fontColor=#0000FF;labelBackgroundColor=default;" parent="bnFm4gvqlaWau3aMOQDy-68" vertex="1" connectable="0">
          <mxGeometry relative="1" as="geometry">
            <mxPoint as="offset" />
          </mxGeometry>
        </mxCell>
        <mxCell id="bnFm4gvqlaWau3aMOQDy-72" value="" style="html=1;points=[];perimeter=orthogonalPerimeter;rounded=0;shadow=0;comic=0;labelBackgroundColor=default;strokeWidth=1;fontFamily=Helvetica;fontSize=12;align=center;fillColor=#dae8fc;strokeColor=#6c8ebf;" parent="1" vertex="1">
          <mxGeometry x="290" y="512" width="10" height="258" as="geometry" />
        </mxCell>
        <mxCell id="yroGHbSk9mLoKnZrlHjl-15" value="query points of interest coordinates via SPARQL" style="html=1;verticalAlign=bottom;endArrow=block;rounded=0;endFill=1;endSize=6;fontFamily=Helvetica;exitX=0.994;exitY=0.134;exitDx=0;exitDy=0;exitPerimeter=0;labelBackgroundColor=default;" parent="1" edge="1">
          <mxGeometry x="0.0017" relative="1" as="geometry">
            <mxPoint x="718.9399999999998" y="836.78" as="sourcePoint" />
            <mxPoint as="offset" />
            <mxPoint x="1016" y="837" as="targetPoint" />
          </mxGeometry>
        </mxCell>
        <mxCell id="yroGHbSk9mLoKnZrlHjl-16" value="return location (lat, long in String)" style="html=1;verticalAlign=bottom;endArrow=block;dashed=1;endSize=6;exitX=0.046;exitY=0.992;rounded=0;endFill=1;fontFamily=Helvetica;exitDx=0;exitDy=0;exitPerimeter=0;labelBackgroundColor=default;" parent="1" source="yroGHbSk9mLoKnZrlHjl-14" target="yroGHbSk9mLoKnZrlHjl-17" edge="1">
          <mxGeometry x="0.0001" relative="1" as="geometry">
            <mxPoint x="720" y="871" as="targetPoint" />
            <mxPoint x="1077.5" y="910.5200000000001" as="sourcePoint" />
            <mxPoint as="offset" />
          </mxGeometry>
        </mxCell>
        <mxCell id="yroGHbSk9mLoKnZrlHjl-28" value="&lt;font style=&quot;font-size: 11px&quot;&gt;return isochrone polygon&lt;/font&gt;" style="html=1;verticalAlign=bottom;endArrow=none;labelBackgroundColor=default;fontFamily=Helvetica;fontSize=11;edgeStyle=elbowEdgeStyle;elbow=vertical;dashed=1;startArrow=block;startFill=1;endFill=0;rounded=0;endSize=6;" parent="1" edge="1">
          <mxGeometry relative="1" as="geometry">
            <mxPoint x="430" y="1026" as="sourcePoint" />
            <mxPoint x="878" y="1026" as="targetPoint" />
            <Array as="points">
              <mxPoint x="510" y="1026" />
              <mxPoint x="713" y="1012" />
            </Array>
          </mxGeometry>
        </mxCell>
        <mxCell id="bnFm4gvqlaWau3aMOQDy-71" value="&lt;font style=&quot;font-size: 11px&quot;&gt;return MultiLineString &lt;br&gt;coordinates (Geojson)&lt;/font&gt;" style="html=1;verticalAlign=bottom;endArrow=none;labelBackgroundColor=default;fontFamily=Helvetica;fontSize=11;edgeStyle=elbowEdgeStyle;elbow=vertical;dashed=1;startArrow=block;startFill=1;endFill=0;rounded=0;endSize=6;entryX=-0.276;entryY=0.919;entryDx=0;entryDy=0;entryPerimeter=0;exitX=1.146;exitY=0.945;exitDx=0;exitDy=0;exitPerimeter=0;" parent="1" target="bnFm4gvqlaWau3aMOQDy-60" edge="1">
          <mxGeometry relative="1" as="geometry">
            <mxPoint x="301.46000000000004" y="754.0999999999999" as="sourcePoint" />
            <mxPoint x="878" y="754" as="targetPoint" />
            <Array as="points" />
          </mxGeometry>
        </mxCell>
        <mxCell id="bnFm4gvqlaWau3aMOQDy-11" value="&lt;font style=&quot;font-size: 11px&quot;&gt;return data&lt;/font&gt;" style="html=1;verticalAlign=bottom;endArrow=none;labelBackgroundColor=default;fontFamily=Helvetica;fontSize=11;edgeStyle=elbowEdgeStyle;elbow=vertical;dashed=1;startArrow=block;startFill=1;endFill=0;rounded=0;endSize=6;" parent="1" edge="1">
          <mxGeometry relative="1" as="geometry">
            <mxPoint x="430" y="753.14" as="sourcePoint" />
            <mxPoint x="882.5" y="753.030303030303" as="targetPoint" />
          </mxGeometry>
        </mxCell>
        <mxCell id="bnFm4gvqlaWau3aMOQDy-83" value="" style="html=1;verticalAlign=bottom;endArrow=block;rounded=0;endFill=1;endSize=6;fontFamily=Helvetica;labelBackgroundColor=default;" parent="1" edge="1">
          <mxGeometry x="0.0032" relative="1" as="geometry">
            <mxPoint x="430" y="999" as="sourcePoint" />
            <mxPoint as="offset" />
            <mxPoint x="878" y="999" as="targetPoint" />
          </mxGeometry>
        </mxCell>
        <mxCell id="bnFm4gvqlaWau3aMOQDy-84" value="&lt;font color=&quot;#cc6600&quot;&gt;Isochrone Table&lt;/font&gt; in SQL view" style="edgeLabel;html=1;align=center;verticalAlign=bottom;resizable=0;points=[];fontColor=#0000FF;labelBackgroundColor=default;" parent="bnFm4gvqlaWau3aMOQDy-83" vertex="1" connectable="0">
          <mxGeometry relative="1" as="geometry">
            <mxPoint as="offset" />
          </mxGeometry>
        </mxCell>
        <mxCell id="bnFm4gvqlaWau3aMOQDy-86" value="Trips Centrality" style="text;html=1;strokeColor=none;fillColor=none;align=left;verticalAlign=middle;whiteSpace=wrap;rounded=0;fontColor=#FF0000;fontStyle=5;labelBackgroundColor=default;" parent="1" vertex="1">
          <mxGeometry x="10" y="1044" width="125" height="40" as="geometry" />
        </mxCell>
        <mxCell id="bnFm4gvqlaWau3aMOQDy-87" value="Travelling Salesman Problem" style="text;html=1;strokeColor=none;fillColor=none;align=left;verticalAlign=middle;whiteSpace=wrap;rounded=0;fontColor=#FF0000;fontStyle=5;labelBackgroundColor=default;" parent="1" vertex="1">
          <mxGeometry x="10" y="1284" width="170" height="40" as="geometry" />
        </mxCell>
        <mxCell id="p0byIvA4VLlAtnDWS7G8-8" value="Input Selection of Points of Interest" style="html=1;verticalAlign=bottom;endArrow=block;labelBackgroundColor=default;fontFamily=Helvetica;fontSize=12;edgeStyle=elbowEdgeStyle;elbow=vertical;" parent="1" edge="1">
          <mxGeometry relative="1" as="geometry">
            <mxPoint x="200" y="1334.2" as="sourcePoint" />
            <mxPoint as="offset" />
            <mxPoint x="870" y="1334" as="targetPoint" />
          </mxGeometry>
        </mxCell>
        <mxCell id="p0byIvA4VLlAtnDWS7G8-25" value="return location (lat, long in String)" style="html=1;verticalAlign=bottom;endArrow=block;dashed=1;endSize=6;exitX=0.046;exitY=0.992;rounded=0;endFill=1;fontFamily=Helvetica;exitDx=0;exitDy=0;exitPerimeter=0;labelBackgroundColor=default;" parent="1" edge="1">
          <mxGeometry x="0.0008" relative="1" as="geometry">
            <mxPoint x="710" y="1371" as="targetPoint" />
            <mxPoint x="1064.96" y="1370.6080000000002" as="sourcePoint" />
            <mxPoint as="offset" />
          </mxGeometry>
        </mxCell>
        <mxCell id="bnFm4gvqlaWau3aMOQDy-96" value="" style="rounded=0;whiteSpace=wrap;html=1;fillColor=#fad7ac;strokeColor=#b46504;labelBackgroundColor=default;" parent="1" vertex="1">
          <mxGeometry x="1720" y="92" width="40" height="20" as="geometry" />
        </mxCell>
        <mxCell id="bnFm4gvqlaWau3aMOQDy-97" value="&lt;font&gt;Brown coloured texts refers to the Postgis table&lt;/font&gt;" style="text;html=1;strokeColor=none;fillColor=none;align=center;verticalAlign=middle;whiteSpace=wrap;rounded=0;fontSize=10;fontColor=#CC6600;labelBackgroundColor=default;" parent="1" vertex="1">
          <mxGeometry x="1760" y="87" width="140" height="30" as="geometry" />
        </mxCell>
        <mxCell id="p0byIvA4VLlAtnDWS7G8-7" value="&lt;font style=&quot;font-size: 11px&quot;&gt;return data&lt;/font&gt;" style="html=1;verticalAlign=bottom;endArrow=none;labelBackgroundColor=default;fontFamily=Helvetica;fontSize=11;edgeStyle=elbowEdgeStyle;elbow=vertical;dashed=1;startArrow=block;startFill=1;endFill=0;rounded=0;endSize=6;entryX=-0.237;entryY=0.891;entryDx=0;entryDy=0;entryPerimeter=0;" parent="1" edge="1">
          <mxGeometry x="0.0039" relative="1" as="geometry">
            <mxPoint x="429" y="1541" as="sourcePoint" />
            <mxPoint x="875.6299999999999" y="1542.47" as="targetPoint" />
            <Array as="points">
              <mxPoint x="713" y="1541" />
            </Array>
            <mxPoint as="offset" />
          </mxGeometry>
        </mxCell>
        <mxCell id="bnFm4gvqlaWau3aMOQDy-76" value="(Enum Type: Medical Care Facilities)" style="text;html=1;strokeColor=none;fillColor=none;align=center;verticalAlign=middle;whiteSpace=wrap;rounded=0;labelBackgroundColor=default;" parent="1" vertex="1">
          <mxGeometry x="360" y="844" width="200" height="30" as="geometry" />
        </mxCell>
        <mxCell id="t-bIzOMGR2YMaXMkrY-F-18" value="query points of interest &lt;br&gt;coordinates via SPARQL" style="html=1;verticalAlign=bottom;endArrow=block;rounded=0;endFill=1;endSize=6;fontFamily=Helvetica;exitX=0.994;exitY=0.134;exitDx=0;exitDy=0;exitPerimeter=0;labelBackgroundColor=default;" parent="1" edge="1">
          <mxGeometry x="0.0009" relative="1" as="geometry">
            <mxPoint x="888" y="1333" as="sourcePoint" />
            <mxPoint as="offset" />
            <mxPoint x="1069.5000000000005" y="1332.9999999999998" as="targetPoint" />
          </mxGeometry>
        </mxCell>
        <mxCell id="3kJcUI0Kx0Ky6P0sQQOm-2" value="(Enum Type: Medical Care Facilities)" style="text;html=1;strokeColor=none;fillColor=none;align=center;verticalAlign=middle;whiteSpace=wrap;rounded=0;labelBackgroundColor=default;" parent="1" vertex="1">
          <mxGeometry x="360" y="1084" width="200" height="30" as="geometry" />
        </mxCell>
        <mxCell id="3kJcUI0Kx0Ky6P0sQQOm-3" value="(Enum Type: Medical Care Facilities)" style="text;html=1;strokeColor=none;fillColor=none;align=center;verticalAlign=middle;whiteSpace=wrap;rounded=0;labelBackgroundColor=default;" parent="1" vertex="1">
          <mxGeometry x="440" y="1334" width="200" height="30" as="geometry" />
        </mxCell>
        <mxCell id="yroGHbSk9mLoKnZrlHjl-8" value="" style="endArrow=none;dashed=1;html=1;rounded=0;labelBackgroundColor=default;" parent="1" edge="1">
          <mxGeometry width="50" height="50" relative="1" as="geometry">
            <mxPoint x="10" y="430" as="sourcePoint" />
            <mxPoint x="1790" y="430" as="targetPoint" />
          </mxGeometry>
        </mxCell>
        <mxCell id="xMspp8uFyOqzuR0fXWir-2" value="&lt;h1&gt;What should I semantically tag?&amp;nbsp;&amp;nbsp;&lt;/h1&gt;&lt;p&gt;Which table or which database or which column?&lt;/p&gt;&lt;p&gt;&lt;br&gt;&lt;/p&gt;&lt;p&gt;1) How should we represent the database in OSM?&amp;nbsp;&lt;/p&gt;&lt;p&gt;2)&amp;nbsp;&lt;/p&gt;" style="text;html=1;strokeColor=none;fillColor=none;spacing=5;spacingTop=-20;whiteSpace=wrap;overflow=hidden;rounded=0;" parent="1" vertex="1">
          <mxGeometry x="1920" y="30" width="410" height="250" as="geometry" />
        </mxCell>
      </root>
    </mxGraphModel>
  </diagram>
</mxfile>
